<svg width="104" height="87" viewBox="0 0 104 87" fill="none" xmlns="http://www.w3.org/2000/svg">
<path d="M77.3502 57.6649L90.0769 7.83289H104V0H83.9932L80.993 11.747L0 11.6891L8.61076 57.6646H77.3502V57.6649ZM78.993 19.5785L71.2665 49.8319H15.1127L9.43725 19.5288L78.993 19.5785Z" fill="white"/>
<path d="M66.6277 86.2103C73.5346 86.2103 79.1538 80.591 79.1538 73.6841C79.1538 66.7772 73.5346 61.1582 66.6277 61.1582H19.4344C12.5276 61.1582 6.90826 66.7772 6.90826 73.6841C6.90826 80.591 12.5274 86.2103 19.4344 86.2103C26.3414 86.2103 31.9605 80.591 31.9605 73.6841C31.9605 72.0254 31.6355 70.4413 31.0474 68.9911H55.0148C54.4265 70.4413 54.1015 72.0254 54.1015 73.6841C54.1017 80.591 59.7208 86.2103 66.6277 86.2103ZM24.1276 73.6841C24.1276 76.2721 22.0223 78.3774 19.4344 78.3774C16.8466 78.3774 14.7412 76.2721 14.7412 73.6841C14.7412 71.0964 16.8465 68.9911 19.4344 68.9911C22.0223 68.9911 24.1276 71.0964 24.1276 73.6841ZM71.321 73.6841C71.321 76.2721 69.2157 78.3774 66.6278 78.3774C64.04 78.3774 61.9347 76.2721 61.9347 73.6841C61.9347 71.0964 64.04 68.9911 66.6278 68.9911C69.2157 68.9911 71.321 71.0964 71.321 73.6841Z" fill="white"/>
</svg>
