<svg width="70" height="70" viewBox="0 0 70 70" fill="none" xmlns="http://www.w3.org/2000/svg">
<path d="M58.6223 0H10.7408C4.80641 0 0 4.80797 0 10.7377V58.6223C0 64.5534 4.80641 69.3631 10.7408 69.3631H58.6223C64.5487 69.3631 69.3567 64.5536 69.3567 58.6223V10.7377C69.3567 4.80797 64.5487 0 58.6223 0V0ZM36.8817 52.6352V58.6783H32.0722V52.9872C28.3714 52.8752 24.6738 51.8128 22.565 50.4064L24.1506 44.8944C26.4339 46.2416 29.7202 47.4752 33.3011 47.4752C37.0019 47.4752 39.5203 45.6495 39.5203 42.8352C39.5203 40.2016 37.4706 38.4977 33.1267 36.9087C26.9652 34.6816 22.9747 31.8656 22.9747 26.4111C22.9747 21.36 26.4914 17.4911 32.4195 16.4352V10.6798H37.2339V16.1391C40.9298 16.2575 43.4564 17.1391 45.3347 18.0752L43.7459 23.472C42.3362 22.8287 39.757 21.4848 35.7652 21.4848C31.6644 21.4848 30.1923 23.592 30.1923 25.5856C30.1923 27.9889 32.3044 29.3409 37.298 31.3361C43.8677 33.8033 46.8003 36.9697 46.8003 42.1905C46.7987 47.1792 43.3331 51.5777 36.8819 52.6352H36.8817Z" fill="#1DD795"/>
</svg>
