<svg width="28" height="28" viewBox="0 0 28 28" fill="none" xmlns="http://www.w3.org/2000/svg">
<path d="M14 28C6.26801 28 0 21.732 0 14C0 6.26801 6.26801 0 14 0C21.732 0 28 6.26801 28 14C28 21.732 21.732 28 14 28Z" fill="url(#paint0_linear_45_100)"/>
<path d="M9.98966 22.75H18.0103C20.6237 22.75 22.75 20.624 22.75 18.0103V9.98966C22.75 7.37603 20.6237 5.25 18.0103 5.25H9.98966C7.37603 5.25 5.25 7.37603 5.25 9.98966V18.0106C5.25 20.624 7.37603 22.75 9.98966 22.75ZM18.0103 6.70841C19.8196 6.70841 21.2916 8.18038 21.2916 9.98966V18.0106C21.2916 19.8198 19.8196 21.2918 18.0103 21.2918H9.98966C8.18038 21.2918 6.70841 19.8198 6.70841 18.0106V9.98966C6.70841 8.18038 8.18038 6.70841 9.98966 6.70841H18.0103Z" fill="white"/>
<path d="M14 18.375C16.4124 18.375 18.375 16.4122 18.375 14C18.375 11.5874 16.4124 9.625 14 9.625C11.5876 9.625 9.625 11.5874 9.625 14C9.625 16.4122 11.5876 18.375 14 18.375ZM14 11.0834C15.6083 11.0834 16.9166 12.3917 16.9166 14C16.9166 15.6085 15.6083 16.9166 14 16.9166C12.3917 16.9166 11.0834 15.6085 11.0834 14C11.0834 12.3917 12.3915 11.0834 14 11.0834Z" fill="white"/>
<path d="M9.35156 10.3542C8.79788 10.3542 8.34903 9.90534 8.34903 9.35165C8.34903 8.79797 8.79788 8.34912 9.35156 8.34912C9.90525 8.34912 10.3541 8.79797 10.3541 9.35165C10.3541 9.90534 9.90525 10.3542 9.35156 10.3542Z" fill="white"/>
<defs>
<linearGradient id="paint0_linear_45_100" x1="22.0306" y1="25.4692" x2="5.96914" y2="2.53103" gradientUnits="userSpaceOnUse">
<stop stop-color="#FFB900"/>
<stop offset="1" stop-color="#9100EB"/>
</linearGradient>
</defs>
</svg>
