<svg width="28" height="28" viewBox="0 0 28 28" fill="none" xmlns="http://www.w3.org/2000/svg">
<path d="M14.8471 11.6579V11.6284C14.8415 11.638 14.8332 11.6487 14.8276 11.6579H14.8471Z" fill="url(#paint0_linear_45_102)"/>
<path d="M14 0C6.268 0 0 6.268 0 14C0 21.732 6.268 28 14 28C21.732 28 28 21.732 28 14C28 6.268 21.732 0 14 0ZM10.1445 19.4448H7.11722V10.3378H10.1445V19.4448ZM8.63144 9.09492H8.61103C7.59532 9.09492 6.9374 8.39493 6.9374 7.52045C6.9374 6.62691 7.61529 5.94728 8.65096 5.94728C9.68709 5.94728 10.3241 6.62691 10.3441 7.52045C10.3442 8.39493 9.68715 9.09492 8.63144 9.09492ZM21.0626 19.445H18.0353V14.5725C18.0353 13.3486 17.597 12.5131 16.5014 12.5131C15.6647 12.5131 15.1669 13.076 14.9476 13.6204C14.8677 13.8153 14.8473 14.0859 14.8473 14.3587V19.4448H11.8195C11.8195 19.4448 11.8599 11.1924 11.8195 10.3378H14.8471V11.6285C15.2492 11.009 15.968 10.1237 17.5761 10.1237C19.569 10.1237 21.0625 11.4251 21.0627 14.2225V19.445H21.0626Z" fill="url(#paint1_linear_45_102)"/>
<defs>
<linearGradient id="paint0_linear_45_102" x1="0.106254" y1="-4.84258" x2="32.1086" y2="30.9674" gradientUnits="userSpaceOnUse">
<stop stop-color="#517FA6"/>
<stop offset="1" stop-color="#426699"/>
</linearGradient>
<linearGradient id="paint1_linear_45_102" x1="-1.53088" y1="-3.37979" x2="30.4707" y2="32.4315" gradientUnits="userSpaceOnUse">
<stop stop-color="#517FA6"/>
<stop offset="1" stop-color="#426699"/>
</linearGradient>
</defs>
</svg>
