<svg width="35" height="35" viewBox="0 0 35 35" fill="none" xmlns="http://www.w3.org/2000/svg">
<path d="M11.2192 13.1721C11.7314 12.6599 12.2995 12.2376 12.9039 11.9039C16.272 10.0477 20.591 11.0347 22.7564 14.3177L20.136 16.9369C19.3847 15.2231 17.5192 14.2477 15.663 14.6631C14.9642 14.8194 14.3004 15.1682 13.7579 15.7107L8.73652 20.7344C7.21169 22.2592 7.21169 24.7396 8.73652 26.2644C10.2614 27.7892 12.7417 27.7892 14.2665 26.2644L15.8147 24.7162C17.2229 25.2751 18.7325 25.4979 20.2235 25.3871L16.8064 28.8042C13.8769 31.7337 9.12736 31.7337 6.19786 28.8042C3.26836 25.8747 3.26836 21.1252 6.19786 18.1957L11.2192 13.1721V13.1721ZM19.1945 5.19674L15.7774 8.6139C17.2672 8.5019 18.778 8.7259 20.1862 9.28357L21.7332 7.73657C23.258 6.21174 25.7384 6.21174 27.2632 7.73657C28.788 9.2614 28.788 11.7417 27.2632 13.2666L22.2407 18.2891C20.7112 19.8186 18.2274 19.8057 16.7107 18.2891C16.3572 17.9356 16.0527 17.4957 15.8625 17.0629L13.2422 19.6821C13.5175 20.0997 13.8034 20.4602 14.1709 20.8277C15.1182 21.7751 16.3245 22.4809 17.7129 22.8157C19.5119 23.2486 21.4392 23.0094 23.0947 22.0959C23.699 21.7622 24.2672 21.3399 24.7794 20.8277L29.8007 15.8052C32.7314 12.8757 32.7314 8.12624 29.8019 5.19674C26.8724 2.2684 22.124 2.2684 19.1945 5.19674V5.19674Z" fill="#027BFF" fill-opacity="0.6"/>
</svg>
