<svg width="144" height="144" viewBox="0 0 144 144" fill="none" xmlns="http://www.w3.org/2000/svg">
<rect width="144" height="144" rx="23" fill="#2196F3"/>
<path d="M119.005 30.4939H49.0295C45.1649 30.4939 42.032 33.6268 42.032 37.4914C42.032 41.356 45.1649 44.489 49.0295 44.489H119.005C122.87 44.489 126.002 41.356 126.002 37.4914C126.002 33.6268 122.87 30.4939 119.005 30.4939Z" fill="white"/>
<path d="M35.0344 37.4914C35.0265 35.6386 34.2841 33.8645 32.9701 32.5581C30.2409 29.845 25.8329 29.845 23.1036 32.5581C21.7894 33.8645 21.047 35.6386 21.0393 37.4914C20.9871 37.9447 20.9871 38.4026 21.0393 38.8559C21.1185 39.3118 21.2475 39.7577 21.4242 40.1854C21.612 40.5998 21.8344 40.9978 22.089 41.375C22.3402 41.7673 22.6334 42.131 22.9636 42.4596C23.282 42.7767 23.6339 43.0584 24.0133 43.2993C24.3817 43.5677 24.7813 43.7909 25.2029 43.9641C25.6667 44.2047 26.1611 44.3813 26.6723 44.4889C27.1256 44.5397 27.5835 44.5397 28.0369 44.4889C29.8846 44.4905 31.6581 43.761 32.9701 42.4596C33.3003 42.131 33.5936 41.7673 33.8448 41.375C34.0994 40.9978 34.3217 40.5998 34.5096 40.1854C34.7328 39.763 34.9089 39.3171 35.0344 38.8559C35.0867 38.4026 35.0867 37.9447 35.0344 37.4914Z" fill="white"/>
<path d="M35.0344 68.9803C35.0864 68.527 35.0864 68.0691 35.0344 67.6158C34.9135 67.1642 34.7372 66.7295 34.5096 66.3212C34.3294 65.892 34.1066 65.4817 33.8448 65.0966C33.6023 64.7087 33.308 64.3556 32.9701 64.047C30.2409 61.3339 25.8328 61.3339 23.1036 64.047C21.7894 65.3534 21.047 67.1275 21.0393 68.9803C21.0529 69.9024 21.2306 70.8145 21.5641 71.6743C21.7395 72.0883 21.9503 72.4863 22.1939 72.8639C22.46 73.2442 22.7649 73.596 23.1036 73.9135C23.4128 74.2507 23.7657 74.5451 24.1532 74.7882C24.5217 75.0568 24.921 75.28 25.3428 75.453C25.7694 75.6325 26.2157 75.7618 26.6723 75.8379C27.12 75.9382 27.5781 75.9853 28.0368 75.9778C28.4902 76.0301 28.9481 76.0301 29.4014 75.9778C29.8466 75.9015 30.2813 75.7723 30.6959 75.593C31.1291 75.4211 31.5402 75.1978 31.9205 74.9282C32.308 74.685 32.6609 74.3907 32.9701 74.0535C33.3073 73.7443 33.6016 73.3914 33.8448 73.0039C34.1138 72.6356 34.337 72.2363 34.5096 71.8143C34.7486 71.3498 34.9251 70.8556 35.0344 70.3448C35.0882 69.8915 35.0882 69.4336 35.0344 68.9803Z" fill="white"/>
<path d="M35.0344 100.469C35.0863 100.016 35.0863 99.5581 35.0344 99.1048C34.9135 98.6421 34.7373 98.1957 34.5096 97.7752C34.3218 97.3609 34.0994 96.9629 33.8449 96.5857C33.6017 96.1982 33.3074 95.8452 32.9702 95.536C30.2409 92.823 25.8329 92.823 23.1036 95.536C22.7664 95.8452 22.4721 96.1982 22.229 96.5857C21.9744 96.9629 21.752 97.3609 21.5642 97.7752C21.3827 98.2012 21.2535 98.6477 21.1793 99.1048C21.0807 99.5528 21.0339 100.011 21.0394 100.469C21.0472 102.322 21.7896 104.096 23.1036 105.403C23.4128 105.74 23.7658 106.034 24.1533 106.277C24.5217 106.546 24.921 106.769 25.3429 106.942C25.7695 107.122 26.2158 107.251 26.6724 107.327C27.12 107.427 27.5781 107.474 28.0369 107.467C28.4902 107.519 28.9481 107.519 29.4014 107.467C29.8466 107.391 30.2814 107.261 30.696 107.082C31.1292 106.91 31.5403 106.687 31.9205 106.417C32.308 106.174 32.661 105.88 32.9702 105.543C33.3074 105.233 33.6017 104.88 33.8449 104.493C34.1141 104.125 34.3373 103.725 34.5096 103.303C34.7484 102.839 34.9249 102.345 35.0344 101.834C35.0882 101.381 35.0882 100.923 35.0344 100.469Z" fill="white"/>
<path d="M126.002 61.9828H49.0295C45.1649 61.9828 42.032 65.1157 42.032 68.9803C42.032 72.8449 45.1649 75.9779 49.0295 75.9779H126.002C129.867 75.9779 133 72.8449 133 68.9803C133 65.1157 129.867 61.9828 126.002 61.9828Z" fill="white"/>
<path d="M94.5135 93.4717H49.0295C45.1649 93.4717 42.032 96.6046 42.032 100.469C42.032 104.334 45.1649 107.467 49.0295 107.467H94.5135C98.3781 107.467 101.511 104.334 101.511 100.469C101.511 96.6046 98.3781 93.4717 94.5135 93.4717Z" fill="white"/>
</svg>
