<svg height="512" viewBox="0 0 32 32" width="512" xmlns="http://www.w3.org/2000/svg"><path d="m1 7c0-3.31371 2.68629-6 6-6h18c3.3137 0 6 2.68629 6 6v18c0 3.3137-2.6863 6-6 6h-18c-3.31371 0-6-2.6863-6-6z" fill="#f5e6fd"/><path d="m15.3416 7.65479c-2.1634 0-3.9172 1.75379-3.9172 3.91721 0 2.1634 1.7538 3.9172 3.9172 3.9172 2.1635 0 3.9173-1.7538 3.9173-3.9172 0-2.16342-1.7538-3.91721-3.9173-3.91721z" fill="#bd63f9" fill-rule="evenodd"/><g fill="#d9a5fb" fill-rule="evenodd"><path d="m21.714 16.0673c-.3626-.4108-.8949-.6713-1.4874-.6713h-1.4236c-1.0954 0-1.9833.8879-1.9833 1.9833v4.9828c0 1.0954.8879 1.9833 1.9833 1.9833h1.4236c.5925 0 1.1248-.2604 1.4874-.6712.2045-.2318.1824-.5854-.0493-.7899s-.5853-.1825-.7899.0492c-.1591.1804-.3902.2927-.6482.2927h-1.4236c-.4773 0-.8641-.3868-.8641-.8641v-4.9828c0-.4772.3868-.8641.8641-.8641h1.4236c.258 0 .4891.1124.6482.2927.2046.2317.5582.2537.7899.0492s.2538-.5581.0493-.7898z"/><path d="m23.8361 19.4749c.2185.2186.2185.5729 0 .7914l-1.4923 1.4923c-.2185.2185-.5728.2185-.7914 0-.2185-.2185-.2185-.5729 0-.7914l1.4923-1.4923c.2185-.2185.5729-.2185.7914 0z"/><path d="m23.8361 20.2663c.2185-.2186.2185-.5729 0-.7914l-1.4923-1.4923c-.2185-.2185-.5728-.2185-.7914 0-.2185.2185-.2185.5729 0 .7914l1.4923 1.4923c.2185.2185.5729.2185.7914 0z"/><path d="m18.7771 19.8706c0-.309.2505-.5596.5596-.5596h3.7307c.309 0 .5596.2506.5596.5596 0 .3091-.2506.5596-.5596.5596h-3.7307c-.3091 0-.5596-.2505-.5596-.5596z"/></g><path d="m15.7116 17.112c-.0075.088-.0113.1771-.0113.2671v4.9829c0 .5564.1465 1.0786.403 1.5302h-6.79756c-.72114 0-1.30574-.5846-1.30574-1.3058v-2.7397c0-.4574.25248-.8775.65643-1.0922 2.20157-1.1699 4.63587-1.7174 7.05517-1.6425z" fill="#bd63f9"/></svg>