<svg width="21" height="21" viewBox="0 0 21 21" fill="none" xmlns="http://www.w3.org/2000/svg">
<circle cx="10.5" cy="10.5" r="10.5" fill="#FFAF01"/>
<path d="M10.7535 9.57662C12.2937 9.57662 13.542 8.32809 13.542 6.78819C13.542 5.24829 12.2935 4 10.7535 4C9.21362 4 7.96462 5.24853 7.96462 6.78843C7.96462 8.32832 9.21362 9.57662 10.7535 9.57662ZM11.9364 9.76667H9.57024C7.60159 9.76667 6 11.3685 6 13.3372V16.2307L6.00736 16.276L6.20667 16.3384C8.08539 16.9255 9.71759 17.1212 11.061 17.1212C13.6851 17.1212 15.206 16.3731 15.2997 16.3254L15.486 16.2312H15.5059V13.3372C15.5066 11.3685 13.905 9.76667 11.9364 9.76667Z" fill="white"/>
</svg>
