<svg width="39" height="39" viewBox="0 0 39 39" fill="none" xmlns="http://www.w3.org/2000/svg">
<g clip-path="url(#clip0)">
<path d="M38.9589 29.4624L36.9922 12.2686C36.93 11.724 36.469 11.3265 35.9209 11.3265H30.9514C29.6933 6.15041 25.0539 2.36795 19.5359 2.36795C14.0178 2.36795 9.37843 6.15041 8.12034 11.3265H3.07907C2.53083 11.3265 2.06987 11.724 2.00776 12.2686L0.0411149 29.4693C-0.165068 31.2721 0.409627 33.115 1.61782 34.469C2.82573 35.823 4.55945 36.6321 6.37397 36.6321H32.626C34.4405 36.6321 36.1741 35.8197 37.382 34.4657C38.5902 33.1116 39.1649 31.2653 38.9589 29.4624ZM19.5359 4.52467C23.8556 4.52467 27.5169 7.30066 28.7167 11.3265H10.355C11.5548 7.30066 15.2161 4.52467 19.5359 4.52467Z" fill="#8862E0"/>
</g>
<defs>
<clipPath id="clip0">
<rect width="39" height="39" fill="white"/>
</clipPath>
</defs>
</svg>
